#!OML:ASF X:\für Bonn\!DataBase\2005_08_10_Bjorn_Final\c3d\bjorn.ASF
:FULLY-SPECIFIED
:DEGREES
266
root 11.0325 15.0578 0.00276827 -531.822 89.1738 -535.573
lowerback 27.3383 0.938039 5.20606
upperback 19.1624 4.66614 1.31615
thorax 6.98625 3.76633 -2.28207
lowerneck -9.62707 -5.71294 4.09646
upperneck 11.0241 -7.88519 -2.59846
head 4.60985 -3.83466 -1.97201
rclavicle -1.27222e-014 7.95139e-016
rhumerus 4.76428 -5.29209 -75.5606
rradius 21.3966
rwrist 5.74528
rhand -24.0224 17.1789
rfingers 7.12502
rthumb 2.45577 -12.7868
lclavicle -1.27222e-014 7.95139e-016
lhumerus -13.2086 -41.0386 80.0987
lradius 35.4862
lwrist -10.0157
lhand -22.1601 -9.31313
lfingers 7.12502
lthumb 4.25419 20.6241
rfemur -44.148 -1.44124 6.12742
rtibia 96.2427
rfoot -25.9547 26.7099
rtoes -27.9531
lfemur -58.1666 9.37139 -21.452
ltibia 96.7621
lfoot -23.8327 -3.16691
ltoes -24.521
267
root 11.0727 15.2258 -0.000537738 -529.57 89.1023 -533.308
lowerback 26.6718 1.00946 5.18487
upperback 19.0258 4.66794 1.28001
thorax 7.12309 3.74883 -2.27698
lowerneck -9.63461 -5.65004 4.10191
upperneck 11.4012 -7.79077 -2.63445
head 4.72887 -3.78133 -1.9882
rclavicle -2.38542e-014 8.26944e-014
rhumerus 4.00759 -5.37792 -75.8642
rradius 21.2781
rwrist 5.9197
rhand -23.5556 16.9836
rfingers 7.12502
rthumb 2.90649 -12.9764
lclavicle -2.38542e-014 8.26944e-014
lhumerus -13.6913 -41.0324 80.4329
lradius 35.1857
lwrist -10.0673
lhand -22.0287 -9.165
lfingers 7.12502
lthumb 4.38108 20.7697
rfemur -42.9323 -1.24041 6.37871
rtibia 94.3992
rfoot -25.8159 26.4116
rtoes -27.5684
lfemur -56.8547 9.2343 -21.3561
ltibia 95.0106
lfoot -23.7072 -3.18212
ltoes -23.8623
268
root 11.1143 15.3952 -0.00416364 -528.927 89.0347 -532.655
lowerback 26.0161 1.09212 5.13671
upperback 18.8662 4.677 1.25289
thorax 7.22708 3.72879 -2.25084
lowerneck -9.61115 -5.59781 4.0643
upperneck 11.7875 -7.70652 -2.63393
head 4.84863 -3.7319 -1.98617
rclavicle -4.45278e-014 7.95139e-016
rhumerus 3.23109 -5.53913 -76.1548
rradius 21.1175
rwrist 6.14923
rhand -23.1333 16.8921
rfingers 7.12502
rthumb 3.31438 -13.0619
lclavicle -4.45278e-014 7.95139e-016
lhumerus -14.2329 -41.039 80.815
lradius 34.9344
lwrist -10.1562
lhand -21.8208 -8.97337
lfingers 7.12502
lthumb 4.58179 20.9571
rfemur -41.7063 -1.07331 6.59352
rtibia 92.517
rfoot -25.6634 26.1394
rtoes -27.1414
lfemur -55.5232 9.09496 -21.2834
ltibia 93.2095
lfoot -23.599 -3.24644
ltoes -23.1536
269
root 11.1565 15.5652 -0.00760007 -526.126 88.9589 -529.839
lowerback 25.3573 1.1625 5.13119
upperback 18.7069 4.67995 1.22434
thorax 7.34074 3.71054 -2.24791
lowerneck -9.62972 -5.54714 4.01248
upperneck 12.2154 -7.62627 -2.61198
head 4.98985 -3.68283 -1.978
rclavicle -9.54166e-015 -1.27222e-014
rhumerus 2.48363 -5.65803 -76.4508
rradius 20.9519
rwrist 6.28698
rhand -22.6728 16.7934
rfingers 7.12502
rthumb 3.75912 -13.1532
lclavicle -9.54166e-015 -1.27222e-014
lhumerus -14.7512 -40.945 81.1788
lradius 34.6611
lwrist -10.2873
lhand -21.6454 -8.85365
lfingers 7.12502
lthumb 4.75119 21.0731
rfemur -40.4606 -0.908262 6.85516
rtibia 90.5928
rfoot -25.4196 25.9101
rtoes -26.5108
lfemur -54.1775 8.98039 -21.1631
ltibia 91.3737
lfoot -23.4621 -3.3068
ltoes -22.4307
270
root 11.2001 15.7341 -0.0117279 -523.41 88.8903 -527.11
lowerback 24.7079 1.24339 5.15441
upperback 18.5177 4.69883 1.17943
thorax 7.42306 3.70164 -2.28411
lowerneck -9.61219 -5.50311 4.03343
upperneck 12.6458 -7.56073 -2.61066
head 5.12185 -3.63856 -1.98705
rclavicle 2.38542e-014 -2.38542e-014
rhumerus 1.6765 -5.88014 -76.7546
rradius 20.7937
rwrist 6.50895
rhand -22.2128 16.6572
rfingers 7.12502
rthumb 4.20327 -13.2811
lclavicle 2.38542e-014 -2.38542e-014
lhumerus -15.3408 -40.9181 81.5372
lradius 34.4593
lwrist -10.3888
lhand -21.5079 -8.68736
lfingers 7.12502
lthumb 4.88394 21.2364
rfemur -39.1954 -0.768158 7.10755
rtibia 88.6352
rfoot -25.1884 25.6654
rtoes -26.0528
lfemur -52.8268 8.88718 -21.0441
ltibia 89.5075
lfoot -23.3062 -3.37264
ltoes -21.7272
271
root 11.2443 15.9055 -0.0156218 -523.528 88.7893 -527.227
lowerback 24.0457 1.31064 5.11925
upperback 18.3306 4.69058 1.1485
thorax 7.50785 3.67213 -2.26693
lowerneck -9.63874 -5.44227 4.0236
upperneck 13.1178 -7.46416 -2.64318
head 5.2753 -3.58189 -2.00217
rclavicle 3.49861e-014 3.02153e-014
rhumerus 0.902942 -6.0104 -77.0143
rradius 20.6214
rwrist 6.67176
rhand -21.7895 16.5722
rfingers 7.12502
rthumb 4.61207 -13.3576
lclavicle 3.49861e-014 3.02153e-014
lhumerus -15.9061 -40.8564 81.9178
lradius 34.2382
lwrist -10.4454
lhand -21.3859 -8.58033
lfingers 7.12502
lthumb 5.00177 21.3406
rfemur -37.9195 -0.714325 7.30952
rtibia 86.6323
rfoot -24.93 25.4278
rtoes -25.5798
lfemur -51.4674 8.75178 -20.9801
ltibia 87.5776
lfoot -23.1204 -3.47352
ltoes -20.8954
